<svg xmlns:xlink="http://www.w3.org/1999/xlink" xmlns="http://www.w3.org/2000/svg"   fill="currentColor" viewBox="0 0 24 24" class="sidebar-item__icon" stroke-width="1.5" width="24"  height="24" ><path d="M20.605 8.552c0-2.846-2.317-5.157-5.181-5.157s-5.18 2.312-5.18 5.157a4.7 4.7 0 0 0 .562 2.19l.014.025v.001a.7.7 0 0 1-.098.865l-7.11 7.08a.8.8 0 0 0-.21.403c-.02.122-.011.293.21.514l.794.79a.9.9 0 0 0 .4.178c.13.02.266.002.419-.15v-.002l.96-.953.052-.047a.7.7 0 0 1 .931.048c.314.313.593.345.811.303a1.05 1.05 0 0 0 .592-.355.7.7 0 0 0 .091-.679 1.3 1.3 0 0 0-.186-.354l-.008-.011.002.002-.077-.11a.7.7 0 0 1 .114-.839l.274-.272.052-.047a.697.697 0 0 1 .932.048c.521.52.912.549 1.151.503a1.17 1.17 0 0 0 .663-.42.86.86 0 0 0 .142-.737 1.3 1.3 0 0 0-.141-.347l-.006-.008h.001l-.054-.09a.8.8 0 0 0-.127-.17c-.034-.039-.193-.197-.287-.365a.98.98 0 0 1-.055-.854c.095-.245.275-.457.463-.645l.82-.816.102-.084a.7.7 0 0 1 .836.041l.08.06c.206.136.534.255.938.339.442.091.88.12 1.133.12 2.864 0 5.18-2.31 5.18-5.155m-5.18-2.74a2.746 2.746 0 0 1 2.747 2.74v.002a2.744 2.744 0 0 1-2.748 2.737l.001.001h-.002a2.744 2.744 0 0 1-2.747-2.738v-.002l.014-.27a2.746 2.746 0 0 1 2.733-2.47zm-4.604 4.957v.002zm4.47-3.556a1.35 1.35 0 0 0-1.22 1.34 1.35 1.35 0 0 0 1.352 1.344h.002l.134-.006a1.35 1.35 0 0 0 1.218-1.338l-.007-.131a1.35 1.35 0 0 0-.828-1.113 1.4 1.4 0 0 0-.517-.102h-.002zM22 8.552c0 3.62-2.946 6.55-6.574 6.551v.001h-.004a7.5 7.5 0 0 1-1.413-.15 4.8 4.8 0 0 1-1.078-.349l-.432.43v.002l-.009.01c.074.087.162.2.24.342l.034.053q.042.064.098.17c.072.142.158.344.217.589a2.25 2.25 0 0 1-.282 1.75l-.086.129-.01.013c-.28.373-.81.825-1.525.96a2.3 2.3 0 0 1-1.072-.056c.007.35-.072.74-.312 1.129l-.088.132-.01.013c-.3.4-.824.776-1.452.896a2.16 2.16 0 0 1-1.504-.257l-.528.525a1.84 1.84 0 0 1-1.61.544 2.3 2.3 0 0 1-1.016-.43l-.096-.077-.04-.036-.82-.817c-.544-.542-.695-1.166-.603-1.727a2.2 2.2 0 0 1 .602-1.168v-.001l6.75-6.721a6.1 6.1 0 0 1-.529-2.45C8.849 4.932 11.795 2 15.425 2 19.052 2 22 4.93 22 8.552" fill="#18181B" stroke-width="1.5px"></path></svg>