<svg xmlns="http://www.w3.org/2000/svg" width="176" height="25" fill="none"><path fill="#fff" d="M45.844 6.985c.855 0 1.526.66 1.526 1.498v8.505c0 3.916-3.26 7.101-7.137 7.101s-7.037-3.185-7.037-7.101V8.483c0-.84.659-1.498 1.498-1.498.84 0 1.498.659 1.498 1.498v8.505a4.073 4.073 0 0 0 4.054 4.11c2.298-.031 4.102-1.834 4.102-4.11V8.483c0-.813.687-1.497 1.495-1.498M.597.313C.894.063 1.334-.05 1.752.02c.4.065.748.293.964.629l6.787 9.18L16.35.607c.19-.297.543-.521.939-.586.409-.065.84.047 1.17.306.302.202.512.525.586.908.081.413-.017.848-.267 1.192L11.04 12.833v9.757a1.5 1.5 0 0 1-1.498 1.498 1.52 1.52 0 0 1-1.498-1.498v-9.696L.27 2.435C-.194 1.708-.044.765.597.313M61.845.012c2.75 0 5.465.925 7.647 2.604.353.292.568.71.59 1.154.021.383-.104.744-.349 1.01-.21.298-.55.505-.938.565a1.47 1.47 0 0 1-1.162-.306 9.33 9.33 0 0 0-5.785-2.005l.004.004c-5.13 0-9.3 4.14-9.3 9.077 0 4.936 4.17 8.952 9.3 8.952 2.16 0 4.188-.706 5.707-1.992l.057-.043a1.62 1.62 0 0 1 1.252-.245c.353.081.659.291.861.588.237.241.374.625.353 1.02-.026.453-.25.875-.603 1.133-2.143 1.648-4.855 2.56-7.63 2.56-6.797 0-12.328-5.22-12.328-11.973S54.937.047 61.844.012M96.99 7.048a7.1 7.1 0 0 1 5.582 2.729c1.364-1.712 3.432-2.727 5.596-2.729a7.08 7.08 0 0 1 7.067 7.072v8.504c0 .805-.693 1.463-1.498 1.463a1.464 1.464 0 0 1-1.463-1.463V14.12c-.056-2.303-1.864-4.11-4.11-4.11s-4.076 1.846-4.076 4.11v8.6c0 .042-.001.15-.07.357-.163.49-.567.731-.701.813a1.6 1.6 0 0 1-.758.197l-.227-.016a1.75 1.75 0 0 1-.822-.383l-.082-.087c-.344-.434-.366-.842-.362-1.002v-8.483c0-2.269-1.83-4.11-4.076-4.11-2.247 0-4.076 1.846-4.076 4.11v8.505c0 .494-.25.946-.667 1.209-.06.051-.19.138-.349.185-.146.069-.309.068-.386.068h-.25c-.577-.064-1.076-.494-1.27-1.07l-.04-.147V8.51c.001-.804.682-1.463 1.465-1.463s1.407.564 1.489 1.304a7.03 7.03 0 0 1 4.084-1.304"/><path fill="#fff" fill-rule="evenodd" d="M23.103 7.014c4.48 0 8.122 3.831 8.122 8.535s-3.641 8.534-8.122 8.534-8.12-3.83-8.12-8.534 3.644-8.535 8.12-8.535m0 2.961c-2.78 0-5.13 2.518-5.13 5.574s2.303 5.543 5.13 5.543 5.131-2.521 5.131-5.543c0-3.021-2.35-5.574-5.13-5.574M86.183 7.014c.84 0 1.498.659 1.498 1.498v14.074c0 .814-.684 1.497-1.498 1.497a1.52 1.52 0 0 1-1.498-1.497v-.452c-1.459 1.261-3.262 1.95-5.13 1.95-4.48 0-8.122-3.83-8.122-8.535 0-4.704 3.646-8.535 8.122-8.535 1.877 0 3.68.68 5.13 1.924v-.426c0-.84.66-1.498 1.498-1.498M79.56 9.975c-2.827 0-5.13 2.518-5.13 5.574s2.303 5.543 5.13 5.543 5.13-2.47 5.13-5.543-2.302-5.574-5.13-5.574" clip-rule="evenodd"/><path fill="#3183FF" fill-rule="evenodd" d="M160.451.045a8.326 8.326 0 1 1 0 16.649h-5.946v5.448a1.903 1.903 0 0 1-3.806 0V2.9a2.855 2.855 0 0 1 2.855-2.854zm-5.946 12.843h5.946a4.52 4.52 0 1 0 0-9.038h-5.946z" clip-rule="evenodd"/><path fill="#3183FF" d="M173.533.248c1.051 0 1.904.851 1.904 1.902v19.98a1.904 1.904 0 0 1-3.806 0V2.15c0-1.05.852-1.902 1.902-1.902"/><path fill="#3183FF" fill-rule="evenodd" d="M136.652.045c.729 0 1.395.417 1.712 1.074l6.196 12.812.011.024.002.005 3.32 7.168a1.904 1.904 0 0 1-3.454 1.598l-2.808-6.064h-9.959l-2.808 6.064a1.903 1.903 0 0 1-3.454-1.598l3.32-7.168.002-.005.009-.022.001-.002 6.196-12.812.009-.018.048-.09.007-.012a1.9 1.9 0 0 1 1.65-.954m-3.163 12.811h6.324l-3.161-6.538z" clip-rule="evenodd"/></svg>