<svg xmlns="http://www.w3.org/2000/svg" width="175" height="24" fill="none"><path fill="#09161A" fill-opacity=".95" d="M.596.312c.296-.249.734-.36 1.15-.292.4.064.747.291.962.626l6.77 9.147 6.83-9.19c.19-.296.542-.519.937-.583a1.53 1.53 0 0 1 1.168.304c.3.202.51.524.584.905.081.412-.017.845-.266 1.188l-7.72 10.368v9.722c0 .836-.682 1.493-1.494 1.493a1.515 1.515 0 0 1-1.494-1.493v-9.661L.27 2.426C-.194 1.7-.044.761.596.311M45.729 6.958c.853.001 1.522.656 1.522 1.492v8.474c0 3.902-3.25 7.075-7.119 7.075s-7.018-3.173-7.018-7.075V8.45c0-.836.656-1.492 1.493-1.492s1.494.656 1.494 1.492v8.474a4.06 4.06 0 0 0 4.045 4.095c2.292-.03 4.091-1.827 4.091-4.095V8.45c0-.81.686-1.49 1.492-1.492M61.69.011c2.743 0 5.452.922 7.629 2.594a1.6 1.6 0 0 1 .588 1.15c.021.38-.103.741-.348 1.007-.21.296-.55.502-.936.562a1.47 1.47 0 0 1-1.158-.305 9.3 9.3 0 0 0-5.771-1.998l.005.004c-5.118 0-9.279 4.126-9.279 9.044s4.161 8.92 9.279 8.92c2.155 0 4.177-.703 5.693-1.985l.055-.044a1.62 1.62 0 0 1 1.249-.244c.352.081.657.291.86.587.235.24.372.623.35 1.017-.025.45-.248.87-.6 1.128-2.138 1.642-4.843 2.551-7.612 2.551-6.78 0-12.296-5.202-12.296-11.93S54.8.045 61.69.011M96.748 7.021a7.09 7.09 0 0 1 5.569 2.72c1.36-1.706 3.423-2.718 5.581-2.72 3.888.003 7.05 3.163 7.05 7.047v8.473c0 .801-.691 1.458-1.494 1.458s-1.46-.652-1.46-1.458v-8.473c-.055-2.294-1.859-4.095-4.1-4.095s-4.066 1.84-4.066 4.095v8.567c0 .043.001.15-.068.356-.163.489-.567.729-.7.81a1.6 1.6 0 0 1-.756.198l-.227-.017a1.74 1.74 0 0 1-.82-.382l-.082-.085c-.344-.434-.365-.841-.361-1v-8.452c0-2.26-1.825-4.095-4.066-4.095s-4.065 1.84-4.065 4.095v8.474c0 .493-.249.943-.665 1.204-.06.052-.19.138-.348.185-.146.069-.31.068-.387.068h-.25c-.574-.064-1.072-.493-1.265-1.067l-.04-.146V8.48c0-.802.68-1.459 1.46-1.459.782 0 1.405.563 1.486 1.3a7.02 7.02 0 0 1 4.074-1.3"/><path fill="#09161A" fill-opacity=".95" fill-rule="evenodd" d="M23.045 6.987c4.47 0 8.102 3.817 8.102 8.504s-3.633 8.504-8.102 8.504-8.1-3.817-8.1-8.504 3.635-8.503 8.1-8.504m0 2.951c-2.773 0-5.117 2.509-5.117 5.553s2.296 5.524 5.117 5.524c2.82 0 5.118-2.513 5.118-5.524 0-3.01-2.344-5.553-5.118-5.553M85.968 6.987c.838 0 1.495.657 1.495 1.493v14.023c0 .81-.683 1.492-1.495 1.492a1.514 1.514 0 0 1-1.494-1.492v-.45c-1.455 1.255-3.254 1.942-5.117 1.942-4.47 0-8.102-3.817-8.102-8.504s3.637-8.504 8.102-8.504c1.872 0 3.67.678 5.117 1.917V8.48c0-.836.657-1.493 1.494-1.493m-6.607 2.951c-2.82 0-5.117 2.509-5.117 5.553s2.296 5.524 5.117 5.524c2.82 0 5.118-2.462 5.118-5.524s-2.297-5.553-5.118-5.553" clip-rule="evenodd"/><path fill="#3183FF" fill-rule="evenodd" d="M160.053.043c4.586 0 8.304 3.714 8.304 8.295s-3.718 8.293-8.304 8.293h-5.932v5.429c0 1.047-.85 1.895-1.898 1.895a1.897 1.897 0 0 1-1.898-1.895V2.887a2.846 2.846 0 0 1 2.848-2.844zm-5.932 12.797h5.932a4.505 4.505 0 0 0 4.508-4.502 4.506 4.506 0 0 0-4.508-4.503h-5.932z" clip-rule="evenodd"/><path fill="#3183FF" d="M173.102.245c1.049 0 1.898.849 1.898 1.896v19.906a1.897 1.897 0 0 1-3.796 0V2.141c0-1.047.85-1.896 1.898-1.896"/><path fill="#3183FF" fill-rule="evenodd" d="M136.311.043a1.9 1.9 0 0 1 1.71 1.07l6.18 12.766.001.002.009.021.003.005 3.311 7.143c.44.95.025 2.076-.926 2.516a1.9 1.9 0 0 1-2.519-.924l-2.801-6.043h-9.934l-2.801 6.043a1.9 1.9 0 0 1-2.52.924 1.895 1.895 0 0 1-.925-2.516l3.311-7.143.002-.005.01-.021.001-.002 6.18-12.766.008-.017.049-.09.007-.012a1.9 1.9 0 0 1 1.644-.951m-3.153 12.765h6.307l-3.154-6.515z" clip-rule="evenodd"/></svg>