<svg width="24" height="24" viewBox="0 0 24 24" fill="none" xmlns="http://www.w3.org/2000/svg">
<path d="M12 17V7" stroke="#09161A" stroke-opacity="0.94902" stroke-width="2" stroke-linecap="round" stroke-linejoin="round"/>
<path d="M16 8H10C9.46957 8 8.96086 8.21071 8.58579 8.58579C8.21071 8.96086 8 9.46957 8 10C8 10.5304 8.21071 11.0391 8.58579 11.4142C8.96086 11.7893 9.46957 12 10 12H14C14.5304 12 15.0391 12.2107 15.4142 12.5858C15.7893 12.9609 16 13.4696 16 14C16 14.5304 15.7893 15.0391 15.4142 15.4142C15.0391 15.7893 14.5304 16 14 16H8" stroke="#09161A" stroke-opacity="0.94902" stroke-width="2" stroke-linecap="round" stroke-linejoin="round"/>
<path d="M4 2.99992C4 2.7347 4.10536 2.48035 4.29289 2.29281C4.48043 2.10527 4.73478 1.99992 5 1.99992C5.24762 1.99855 5.49048 2.06794 5.7 2.19992L6.633 2.79992C6.84204 2.93349 7.08493 3.00447 7.333 3.00447C7.58107 3.00447 7.82396 2.93349 8.033 2.79992L8.967 2.19992C9.17604 2.06634 9.41893 1.99536 9.667 1.99536C9.91507 1.99536 10.158 2.06634 10.367 2.19992L11.3 2.79992C11.509 2.93349 11.7519 3.00447 12 3.00447C12.2481 3.00447 12.491 2.93349 12.7 2.79992L13.633 2.19992C13.842 2.06634 14.0849 1.99536 14.333 1.99536C14.5811 1.99536 14.824 2.06634 15.033 2.19992L15.967 2.79992C16.176 2.93349 16.4189 3.00447 16.667 3.00447C16.9151 3.00447 17.158 2.93349 17.367 2.79992L18.3 2.19992C18.5095 2.06794 18.7524 1.99855 19 1.99992C19.2652 1.99992 19.5196 2.10527 19.7071 2.29281C19.8946 2.48035 20 2.7347 20 2.99992V20.9999C20 21.2651 19.8946 21.5195 19.7071 21.707C19.5196 21.8946 19.2652 21.9999 19 21.9999C18.7524 22.0013 18.5095 21.9319 18.3 21.7999L17.367 21.1999C17.158 21.0663 16.9151 20.9954 16.667 20.9954C16.4189 20.9954 16.176 21.0663 15.967 21.1999L15.033 21.7999C14.824 21.9335 14.5811 22.0045 14.333 22.0045C14.0849 22.0045 13.842 21.9335 13.633 21.7999L12.7 21.1999C12.491 21.0663 12.2481 20.9954 12 20.9954C11.7519 20.9954 11.509 21.0663 11.3 21.1999L10.367 21.7999C10.158 21.9335 9.91507 22.0045 9.667 22.0045C9.41893 22.0045 9.17604 21.9335 8.967 21.7999L8.033 21.1999C7.82396 21.0663 7.58107 20.9954 7.333 20.9954C7.08493 20.9954 6.84204 21.0663 6.633 21.1999L5.7 21.7999C5.49048 21.9319 5.24762 22.0013 5 21.9999C4.73478 21.9999 4.48043 21.8946 4.29289 21.707C4.10536 21.5195 4 21.2651 4 20.9999V2.99992Z" stroke="#09161A" stroke-opacity="0.94902" stroke-width="2" stroke-linecap="round" stroke-linejoin="round"/>
</svg>
