<svg viewBox="0 0 120 80" xmlns:xlink="http://www.w3.org/1999/xlink" xmlns="http://www.w3.org/2000/svg" width="120" height="80" fill="none"><path fill="#C2DAFF" d="M94.862 25.014H24.138c-4.521 0-8.187 4.163-8.187 9.297s3.666 9.297 8.187 9.297h70.724c4.521 0 8.186-4.162 8.186-9.297 0-5.134-3.665-9.297-8.186-9.297"></path><path fill="#C2DAFF" d="M102.362 38.028H16.638C8.554 38.028 2 44.508 2 52.502v.32c0 7.993 6.554 14.473 14.638 14.473h85.724c8.084 0 14.638-6.48 14.638-14.474v-.32c0-7.993-6.554-14.473-14.638-14.473"></path><path fill="#FFFFFF" d="m74.112 65.194-35.316 6.591c-2.452.458-4.815-1.137-5.278-3.56l-8.99-47.092c-.463-2.425 1.15-4.761 3.602-5.219l35.316-6.59c2.452-.459 4.815 1.136 5.278 3.56l8.99 47.092c.462 2.424-1.15 4.76-3.602 5.218"></path><path fill="#7DB1FF" d="M37.952 72.286q-.335 0-.668-.045a.424.424 0 0 1-.366-.476.426.426 0 0 1 .482-.362 4.2 4.2 0 0 0 1.315-.033l1.907-.356a.427.427 0 0 1 .5.337.424.424 0 0 1-.34.494l-1.908.356a5 5 0 0 1-.922.085m6.09-1.058a.43.43 0 0 1-.419-.344.424.424 0 0 1 .34-.494l3.341-.624a.427.427 0 0 1 .5.337.424.424 0 0 1-.34.494l-3.341.624a1 1 0 0 1-.08.007m-9.593-.593a.43.43 0 0 1-.332-.156 4.9 4.9 0 0 1-1.02-2.177l-.216-1.127a.428.428 0 0 1 .84-.157l.216 1.127a4 4 0 0 0 .843 1.8.42.42 0 0 1-.062.595.43.43 0 0 1-.269.095m16.276-.654a.43.43 0 0 1-.42-.344.424.424 0 0 1 .34-.494l3.341-.624a.43.43 0 0 1 .5.337.424.424 0 0 1-.34.494l-3.341.624a1 1 0 0 1-.08.007m6.681-1.247a.426.426 0 0 1-.419-.344.424.424 0 0 1 .34-.494l3.341-.624a.427.427 0 0 1 .5.337.424.424 0 0 1-.34.494l-3.342.624a1 1 0 0 1-.08.007m6.682-1.247a.43.43 0 0 1-.42-.344.424.424 0 0 1 .342-.495l3.34-.623a.427.427 0 0 1 .5.337.424.424 0 0 1-.34.494l-3.341.624a1 1 0 0 1-.08.007m6.682-1.247a.426.426 0 0 1-.42-.344.424.424 0 0 1 .34-.495l3.359-.626a.43.43 0 0 1 .497.339.423.423 0 0 1-.343.492l-.007.002-3.347.624a1 1 0 0 1-.08.008m-38.1-2.024a.426.426 0 0 1-.419-.344l-.63-3.303a.427.427 0 0 1 .84-.157l.63 3.302a.424.424 0 0 1-.42.502m44.258-.362a.43.43 0 0 1-.252-.08.42.42 0 0 1-.094-.592 3.98 3.98 0 0 0 .75-2.877.425.425 0 0 1 .372-.472.427.427 0 0 1 .477.367q.039.304.039.608a4.82 4.82 0 0 1-.946 2.87.43.43 0 0 1-.346.175zM31.41 57.609a.426.426 0 0 1-.42-.344l-.63-3.303a.427.427 0 0 1 .84-.157l.63 3.302a.424.424 0 0 1-.42.502m45.725-.238a.43.43 0 0 1-.42-.344l-.63-3.303a.427.427 0 0 1 .84-.157l.63 3.302a.424.424 0 0 1-.42.502m-46.987-6.369a.426.426 0 0 1-.42-.344l-.63-3.303a.427.427 0 0 1 .84-.157l.631 3.303a.424.424 0 0 1-.42.501m45.725-.238a.43.43 0 0 1-.42-.344l-.63-3.303a.428.428 0 0 1 .84-.157l.631 3.302a.424.424 0 0 1-.42.502m-46.986-6.369a.43.43 0 0 1-.42-.344l-.63-3.303a.428.428 0 0 1 .84-.157l.631 3.303a.424.424 0 0 1-.42.501m45.725-.238a.43.43 0 0 1-.42-.344l-.63-3.303a.428.428 0 0 1 .84-.157l.631 3.302a.424.424 0 0 1-.42.502m-46.986-6.369a.43.43 0 0 1-.42-.344l-.63-3.303a.428.428 0 0 1 .84-.157l.63 3.303a.424.424 0 0 1-.42.501m45.725-.238a.426.426 0 0 1-.42-.344l-.63-3.303a.428.428 0 0 1 .84-.157l.63 3.302a.424.424 0 0 1-.42.502m-46.986-6.368a.43.43 0 0 1-.42-.345l-.63-3.303a.428.428 0 0 1 .84-.157l.63 3.303a.424.424 0 0 1-.42.502m45.725-.239a.426.426 0 0 1-.42-.344l-.63-3.303a.428.428 0 0 1 .84-.157l.63 3.303a.424.424 0 0 1-.42.501m-46.987-6.368a.43.43 0 0 1-.419-.345l-.577-3.02a5 5 0 0 1-.049-.31.428.428 0 0 1 .85-.103q.016.127.04.257l.577 3.02a.424.424 0 0 1-.42.501zm45.726-.238a.43.43 0 0 1-.42-.344l-.63-3.303a.428.428 0 0 1 .84-.157l.63 3.302a.424.424 0 0 1-.42.502m-45.512-6.244a.43.43 0 0 1-.252-.082.42.42 0 0 1-.093-.59 4.94 4.94 0 0 1 3.07-1.922.422.422 0 1 1 .16.83 4.08 4.08 0 0 0-2.54 1.59.43.43 0 0 1-.345.173m44.25-.363a.43.43 0 0 1-.42-.344l-.63-3.303a.428.428 0 0 1 .84-.158l.631 3.303a.424.424 0 0 1-.42.502m-38.105-2.016a.43.43 0 0 1-.42-.344.424.424 0 0 1 .341-.494l3.34-.623a.43.43 0 0 1 .5.336.424.424 0 0 1-.34.494l-3.34.624a1 1 0 0 1-.08.007m6.682-1.247a.426.426 0 0 1-.42-.344.424.424 0 0 1 .341-.494l3.34-.624a.43.43 0 0 1 .5.337.424.424 0 0 1-.34.494l-3.34.624a1 1 0 0 1-.08.007m6.682-1.247a.43.43 0 0 1-.42-.344.424.424 0 0 1 .341-.494l3.34-.624a.43.43 0 0 1 .5.337.424.424 0 0 1-.34.494l-3.34.624a1 1 0 0 1-.08.007m6.682-1.247a.43.43 0 0 1-.42-.344.424.424 0 0 1 .341-.494l3.34-.624a.43.43 0 0 1 .5.337.424.424 0 0 1-.34.494l-3.34.624a1 1 0 0 1-.08.007m16.28-.66a.43.43 0 0 1-.332-.156 4.1 4.1 0 0 0-2.622-1.454.424.424 0 0 1-.366-.476.426.426 0 0 1 .48-.362 4.95 4.95 0 0 1 3.17 1.757.42.42 0 0 1-.06.595.43.43 0 0 1-.27.095m-9.598-.587a.43.43 0 0 1-.42-.344.424.424 0 0 1 .341-.494l3.34-.624a.43.43 0 0 1 .5.337.424.424 0 0 1-.34.494l-3.341.624a1 1 0 0 1-.08.007"></path><path fill="#FFFFFF" d="m45.119 65.194 35.316 6.591c2.452.458 4.815-1.137 5.278-3.56l8.99-47.092c.462-2.425-1.15-4.761-3.602-5.219l-35.316-6.59c-2.452-.459-4.815 1.136-5.278 3.56l-8.99 47.092c-.463 2.424 1.15 4.76 3.602 5.218"></path><path fill="#7DB1FF" d="M81.278 72.286a5 5 0 0 1-.922-.085l-1.907-.356a.424.424 0 1 1 .158-.832l1.907.356c.435.08.881.093 1.315.034.235-.033.45.13.482.361a.424.424 0 0 1-.365.476 5 5 0 0 1-.668.046m-6.09-1.058a.4.4 0 0 1-.08-.007l-3.34-.624a.423.423 0 1 1 .159-.83l3.34.623a.423.423 0 0 1-.079.838m9.593-.593a.424.424 0 0 1-.331-.69c.426-.518.717-1.14.843-1.8l.215-1.128a.428.428 0 0 1 .842.157l-.216 1.127a4.9 4.9 0 0 1-1.02 2.177.43.43 0 0 1-.332.156zm-16.275-.654a.4.4 0 0 1-.08-.007l-3.34-.624a.423.423 0 1 1 .16-.83l3.34.623a.423.423 0 0 1-.08.838m-6.682-1.247a.4.4 0 0 1-.08-.007l-3.34-.624a.423.423 0 1 1 .16-.831l3.34.624a.422.422 0 0 1-.079.838m-6.682-1.247a.4.4 0 0 1-.08-.008l-3.34-.623a.423.423 0 1 1 .16-.831l3.34.623a.423.423 0 0 1-.079.839M48.46 66.24a.4.4 0 0 1-.08-.008l-3.337-.623q-.012 0-.022-.004a.423.423 0 1 1 .166-.83h.005l3.347.626a.423.423 0 0 1-.079.839m38.1-2.024a.423.423 0 0 1-.42-.502l.63-3.303a.427.427 0 0 1 .5-.337.423.423 0 0 1 .34.495l-.63 3.303a.43.43 0 0 1-.42.344m-44.258-.362a.43.43 0 0 1-.346-.175 4.82 4.82 0 0 1-.907-3.479.426.426 0 0 1 .477-.367c.235.03.401.24.371.473a3.984 3.984 0 0 0 .751 2.877.42.42 0 0 1-.094.59.43.43 0 0 1-.252.082zm45.518-6.245a.423.423 0 0 1-.42-.502l.63-3.303a.427.427 0 0 1 .5-.337.423.423 0 0 1 .341.495l-.63 3.303a.426.426 0 0 1-.42.344m-45.725-.238a.423.423 0 0 1-.42-.502l.63-3.303a.427.427 0 0 1 .5-.337.423.423 0 0 1 .341.495l-.63 3.303a.43.43 0 0 1-.42.344m46.987-6.369a.423.423 0 0 1-.42-.502l.63-3.303a.427.427 0 0 1 .5-.336.423.423 0 0 1 .34.494l-.63 3.303a.426.426 0 0 1-.42.344m-45.725-.238a.423.423 0 0 1-.42-.502l.63-3.303a.427.427 0 0 1 .5-.337.423.423 0 0 1 .34.495l-.63 3.303a.43.43 0 0 1-.42.344m46.986-6.369a.423.423 0 0 1-.42-.502l.63-3.303a.427.427 0 0 1 .5-.336.423.423 0 0 1 .34.494l-.63 3.303a.43.43 0 0 1-.42.344m-45.725-.238a.423.423 0 0 1-.42-.502l.63-3.303a.427.427 0 0 1 .5-.336.423.423 0 0 1 .34.494l-.63 3.303a.426.426 0 0 1-.42.344m46.986-6.369a.423.423 0 0 1-.42-.502l.63-3.302a.427.427 0 0 1 .5-.337.423.423 0 0 1 .34.494l-.63 3.303a.426.426 0 0 1-.42.344M45.88 37.55a.423.423 0 0 1-.42-.502l.63-3.303a.427.427 0 0 1 .5-.336.423.423 0 0 1 .34.494l-.63 3.303a.426.426 0 0 1-.42.344m46.986-6.369a.423.423 0 0 1-.42-.502l.63-3.302a.427.427 0 0 1 .5-.337.423.423 0 0 1 .341.494l-.63 3.303a.426.426 0 0 1-.42.344m-45.725-.238a.423.423 0 0 1-.42-.502l.63-3.302a.427.427 0 0 1 .5-.337.423.423 0 0 1 .341.494l-.63 3.303a.426.426 0 0 1-.42.344m46.986-6.369a.423.423 0 0 1-.42-.502l.577-3.019q.025-.128.04-.259a.426.426 0 0 1 .478-.367c.234.029.4.24.371.471q-.02.158-.049.312l-.576 3.02a.426.426 0 0 1-.42.344m-45.725-.238a.423.423 0 0 1-.42-.502l.63-3.302a.427.427 0 0 1 .5-.337.423.423 0 0 1 .341.494l-.63 3.303a.426.426 0 0 1-.42.344m45.512-6.243a.43.43 0 0 1-.346-.174 4.08 4.08 0 0 0-2.539-1.59.423.423 0 1 1 .16-.83 4.94 4.94 0 0 1 3.07 1.922.42.42 0 0 1-.093.591.43.43 0 0 1-.252.082zm-44.25-.364a.423.423 0 0 1-.42-.502l.63-3.302a.427.427 0 0 1 .5-.337.423.423 0 0 1 .34.494l-.63 3.303a.426.426 0 0 1-.42.344m38.105-2.015a.5.5 0 0 1-.08-.007l-3.34-.624a.423.423 0 1 1 .159-.83l3.34.623a.423.423 0 0 1-.078.838zm-6.682-1.247a.4.4 0 0 1-.08-.007l-3.34-.624a.422.422 0 1 1 .159-.83l3.34.623a.423.423 0 0 1-.078.838zm-6.682-1.247a.5.5 0 0 1-.08-.007l-3.34-.624a.423.423 0 1 1 .159-.83l3.34.623a.423.423 0 0 1-.078.838zm-6.682-1.247a1 1 0 0 1-.08-.007l-3.34-.624a.423.423 0 1 1 .159-.83l3.34.623a.423.423 0 0 1-.078.838zm-16.279-.66a.43.43 0 0 1-.27-.096.42.42 0 0 1-.06-.595 4.95 4.95 0 0 1 3.169-1.757c.234-.031.45.131.481.362a.424.424 0 0 1-.366.476 4.1 4.1 0 0 0-2.622 1.454.43.43 0 0 1-.332.155m9.597-.587a.5.5 0 0 1-.08-.007l-3.34-.624a.423.423 0 1 1 .159-.83l3.34.623a.423.423 0 0 1-.078.838z"></path><path fill="#FFFFFF" d="M80.207 7.423H39.023c-2.859 0-5.177 2.292-5.177 5.119v54.915c0 2.828 2.318 5.12 5.177 5.12h41.184c2.86 0 5.178-2.292 5.178-5.12V12.542c0-2.827-2.318-5.119-5.178-5.119"></path><path fill="#7DB1FF" d="M80.225 73h-3.441a.426.426 0 0 1-.428-.424c0-.233.192-.423.428-.423h3.441c.237 0 .428.19.428.423a.426.426 0 0 1-.428.423m-6.866 0h-3.423a.426.426 0 0 1-.428-.424c0-.233.192-.423.428-.423h3.423c.236 0 .428.19.428.423a.426.426 0 0 1-.428.423m-6.847 0h-3.424a.426.426 0 0 1-.428-.424c0-.233.192-.423.428-.423h3.424c.236 0 .428.19.428.423a.426.426 0 0 1-.428.423m-6.848 0h-3.423a.426.426 0 0 1-.428-.424c0-.233.192-.423.428-.423h3.423c.237 0 .428.19.428.423a.426.426 0 0 1-.428.423m-6.848 0h-3.423a.426.426 0 0 1-.428-.424c0-.233.192-.423.428-.423h3.423c.236 0 .428.19.428.423a.426.426 0 0 1-.428.423m-6.847 0h-3.424a.426.426 0 0 1-.428-.424c0-.233.192-.423.428-.423h3.424c.236 0 .428.19.428.423a.426.426 0 0 1-.428.423m-6.847 0h-.099a5.6 5.6 0 0 1-3.357-1.104.42.42 0 0 1-.086-.592.43.43 0 0 1 .599-.085c.826.612 1.81.935 2.844.935h.099c.236 0 .427.19.427.423a.426.426 0 0 1-.427.423M83.4 71.91a.43.43 0 0 1-.337-.162.42.42 0 0 1 .073-.593 4.7 4.7 0 0 0 1.68-2.557.428.428 0 0 1 .83.204 5.56 5.56 0 0 1-1.982 3.018.43.43 0 0 1-.264.09m-49.371-2.676a.43.43 0 0 1-.413-.311 5.5 5.5 0 0 1-.197-1.466v-2.014c0-.233.191-.423.427-.423s.428.19.428.423v2.014c0 .422.057.84.168 1.243a.422.422 0 0 1-.412.534zm51.355-3.484a.426.426 0 0 1-.428-.423v-3.385c0-.233.192-.423.428-.423s.428.19.428.423v3.385a.426.426 0 0 1-.428.423m-51.538-3.27a.426.426 0 0 1-.427-.423v-3.385c0-.233.191-.423.427-.423s.428.19.428.423v3.385a.426.426 0 0 1-.428.423m51.538-3.5a.426.426 0 0 1-.428-.423v-3.385c0-.234.192-.423.428-.423s.428.19.428.423v3.385a.426.426 0 0 1-.428.423m-51.538-3.271a.426.426 0 0 1-.427-.423v-3.385c0-.234.191-.423.427-.423s.428.19.428.423v3.385a.426.426 0 0 1-.428.423m51.538-3.5a.426.426 0 0 1-.428-.423V48.4c0-.233.192-.422.428-.422s.428.19.428.422v3.386a.426.426 0 0 1-.428.423m-51.538-3.27a.426.426 0 0 1-.427-.423V45.13c0-.233.191-.423.427-.423s.428.19.428.423v3.386a.426.426 0 0 1-.428.422m51.538-3.5a.426.426 0 0 1-.428-.424V41.63c0-.233.192-.423.428-.423s.428.19.428.423v3.385a.426.426 0 0 1-.428.423m-51.538-3.271a.426.426 0 0 1-.427-.423V38.36c0-.234.191-.423.427-.423s.428.19.428.423v3.385a.426.426 0 0 1-.428.423m51.538-3.5a.426.426 0 0 1-.428-.423v-3.386c0-.233.192-.422.428-.422s.428.19.428.422v3.386a.426.426 0 0 1-.428.423m-51.538-3.27a.426.426 0 0 1-.427-.424V31.59c0-.233.191-.423.427-.423s.428.19.428.423v3.386a.426.426 0 0 1-.428.422m51.538-3.5a.426.426 0 0 1-.428-.424V28.09c0-.233.192-.423.428-.423s.428.19.428.423v3.385a.426.426 0 0 1-.428.423m-51.538-3.271a.426.426 0 0 1-.427-.423v-3.385c0-.234.191-.423.427-.423s.428.19.428.423v3.385a.426.426 0 0 1-.428.423m51.538-3.5a.426.426 0 0 1-.428-.423v-3.386c0-.233.192-.423.428-.423s.428.19.428.424v3.385a.426.426 0 0 1-.428.423m-51.538-3.27a.426.426 0 0 1-.427-.424v-3.385c0-.233.191-.423.427-.423s.428.19.428.423v3.386a.426.426 0 0 1-.428.422m51.538-3.501a.426.426 0 0 1-.428-.423v-3.386c0-.233.192-.423.428-.423s.428.19.428.423v3.386a.426.426 0 0 1-.428.423m-51.538-3.27a.426.426 0 0 1-.427-.424v-2.12c0-.459.056-.914.168-1.355a.428.428 0 0 1 .83.206c-.095.373-.142.76-.142 1.149v2.12a.426.426 0 0 1-.428.423m51.352-3.484a.43.43 0 0 1-.412-.31 4.72 4.72 0 0 0-1.741-2.517.42.42 0 0 1-.087-.592.43.43 0 0 1 .598-.086 5.57 5.57 0 0 1 2.056 2.97.423.423 0 0 1-.412.534zM35.838 8.93a.43.43 0 0 1-.337-.162.42.42 0 0 1 .073-.593A5.6 5.6 0 0 1 39.014 7c.236 0 .427.189.428.422a.426.426 0 0 1-.427.424 4.74 4.74 0 0 0-2.914.993.43.43 0 0 1-.263.09M80.1 7.846h-3.424a.426.426 0 0 1-.428-.423c0-.233.192-.423.428-.423H80.1c.236 0 .427.19.427.423a.426.426 0 0 1-.427.423m-6.848 0h-3.424a.426.426 0 0 1-.427-.423c0-.233.191-.423.427-.423h3.424c.236 0 .428.19.428.423a.426.426 0 0 1-.428.423m-6.847 0H62.98a.426.426 0 0 1-.428-.423c0-.233.192-.423.428-.423h3.424c.236 0 .427.19.427.423a.426.426 0 0 1-.427.423m-6.848 0h-3.424a.426.426 0 0 1-.427-.423c0-.233.191-.423.427-.423h3.424c.236 0 .428.19.428.423a.426.426 0 0 1-.428.423m-6.848 0h-3.424a.426.426 0 0 1-.427-.423c0-.233.191-.423.427-.423h3.424c.236 0 .428.19.428.423a.426.426 0 0 1-.428.423m-6.847 0h-3.424a.426.426 0 0 1-.428-.423c0-.233.192-.423.428-.423h3.424c.236 0 .427.19.427.423a.426.426 0 0 1-.427.423"></path><path fill="#C2DAFF" d="M59.615 57.306c9.667 0 17.503-7.748 17.503-17.306s-7.836-17.306-17.503-17.306S42.112 30.442 42.112 40s7.837 17.306 17.503 17.306"></path><path fill="#7DB1FF" d="M59.615 49.93c-1.196 0-2.165-.958-2.165-2.14V32.21c0-1.183.969-2.142 2.165-2.142s2.165.959 2.165 2.141v15.58c0 1.183-.969 2.141-2.165 2.141"></path><path fill="#7DB1FF" d="M67.493 42.14H51.736c-1.195 0-2.165-.958-2.165-2.14s.97-2.141 2.165-2.141h15.757c1.196 0 2.166.958 2.166 2.14s-.97 2.142-2.166 2.142"></path><path fill="#FFFFFF" d="M15.676 54.513a2.797 2.797 0 0 1-2.793-2.793 2.797 2.797 0 0 1 2.793-2.794 2.797 2.797 0 0 1 2.794 2.794 2.797 2.797 0 0 1-2.794 2.793m0-4.358c-.863 0-1.565.702-1.565 1.565s.702 1.565 1.565 1.565c.864 0 1.566-.702 1.566-1.565s-.703-1.565-1.566-1.565M103.27 56.959a.72.72 0 0 1-.718-.72v-7.187a.718.718 0 1 1 1.437 0v7.188a.72.72 0 0 1-.719.719"></path><path fill="#FFFFFF" d="M106.865 53.365h-7.189a.719.719 0 1 1 0-1.437h7.189a.719.719 0 1 1 0 1.437"></path><path fill="#7DB1FF" d="M26.103 11.226a1 1 0 1 0-1.414-1.414 1 1 0 0 0 1.414 1.414M100.845 72.087a1.26 1.26 0 1 0-2.489-.403 1.26 1.26 0 0 0 2.489.403"></path></svg>