<svg xmlns:xlink="http://www.w3.org/1999/xlink" xmlns="http://www.w3.org/2000/svg" width="24" height="24" viewBox="0 0 24 24" fill="none" stroke="currentColor" stroke-width="1.5" stroke-linecap="round" stroke-linejoin="round" class="lucide lucide-folder-cog sidebar-item__icon" aria-hidden="true"><path d="M10.3 20H4a2 2 0 0 1-2-2V5a2 2 0 0 1 2-2h3.98a2 2 0 0 1 1.69.9l.66 1.2A2 2 0 0 0 12 6h8a2 2 0 0 1 2 2v3.3" stroke="#18181B" fill="none" stroke-width="1.5px"></path><path d="m14.305 19.53.923-.382" stroke="#18181B" fill="none" stroke-width="1.5px"></path><path d="m15.228 16.852-.923-.383" stroke="#18181B" fill="none" stroke-width="1.5px"></path><path d="m16.852 15.228-.383-.923" stroke="#18181B" fill="none" stroke-width="1.5px"></path><path d="m16.852 20.772-.383.924" stroke="#18181B" fill="none" stroke-width="1.5px"></path><path d="m19.148 15.228.383-.923" stroke="#18181B" fill="none" stroke-width="1.5px"></path><path d="m19.53 21.696-.382-.924" stroke="#18181B" fill="none" stroke-width="1.5px"></path><path d="m20.772 16.852.924-.383" stroke="#18181B" fill="none" stroke-width="1.5px"></path><path d="m20.772 19.148.924.383" stroke="#18181B" fill="none" stroke-width="1.5px"></path><circle cx="18" cy="18" r="3" stroke="#18181B" fill="none" stroke-width="1.5px"></circle></svg>