<svg xmlns:xlink="http://www.w3.org/1999/xlink" xmlns="http://www.w3.org/2000/svg"   fill="currentColor" viewBox="0 0 24 24" class="sidebar-item__icon" stroke-width="1.5" width="24"  height="24" ><path d="M9.769 6.192c4.133-4.24 8.413-4.4 10.761-3.509l.29.12.119.067a.75.75 0 0 1 .26.311c1.01 2.266 1.028 6.707-3.343 11 1.17 2.094.778 3.951.06 5.268a7.2 7.2 0 0 1-1.768 2.107l-.041.033-.014.01-.004.002-.002.001v.001l-.447-.602.446.602a.75.75 0 0 1-1.186-.48c-.259-1.562-.428-2.732-1.779-3.445a31 31 0 0 1-.69.383.75.75 0 0 1-1.093-.532c-.07-.406-.54-1.743-1.831-3.035-1.292-1.292-2.63-1.76-3.035-1.831a.75.75 0 0 1-.533-1.094q.18-.334.36-.653c-.621-1.144-1.581-1.42-2.841-1.64l-.581-.099a.75.75 0 0 1-.48-1.185L3 8.437l-.603-.446V7.99l.002-.001.003-.005.01-.013.032-.042q.041-.051.115-.138a7.2 7.2 0 0 1 1.993-1.629c1.306-.713 3.144-1.105 5.217.03m-3.751 8.72.53.531c-.338.337-.965 1.37-.686 2.694 1.326.28 2.359-.347 2.699-.685l.057-.05a.75.75 0 0 1 1.001 1.113l-.136.126c-.717.626-2.312 1.446-4.266.884l-.204-.063a.75.75 0 0 1-.475-.474c-.727-2.182.295-3.952.95-4.606zm10.687.31a23 23 0 0 1-2.166 1.593c.94.745 1.347 1.713 1.575 2.645.168-.214.336-.458.485-.73.489-.896.777-2.086.106-3.509m3.23-11.158c-2.216-.793-7.594-.621-12.234 7.422.805.332 1.861.942 2.866 1.947s1.615 2.06 1.947 2.866c8.044-4.64 8.215-10.018 7.422-12.235M5.489 14.382a.75.75 0 0 1 1.06 1.061zm11.057-6.03a1 1 0 0 0-1.995.099l.005.098a1 1 0 0 0 .995.902l.098-.005a1 1 0 0 0 .902-.995zM8.732 7.346c-1.4-.641-2.575-.351-3.461.132a5.3 5.3 0 0 0-.732.484c.92.225 1.877.625 2.618 1.54a23 23 0 0 1 1.575-2.156m9.306 1.35a2.5 2.5 0 0 1-2.241 2.241l-.247.013a2.5 2.5 0 0 1-2.488-2.253l-.012-.247a2.5 2.5 0 0 1 2.5-2.5 2.5 2.5 0 0 1 2.5 2.5z" fill="#18181B" stroke-width="1.5px"></path></svg>