<svg viewBox="0 0 20 26" xmlns:xlink="http://www.w3.org/1999/xlink" xmlns="http://www.w3.org/2000/svg" width="20" height="26" fill="none"><g filter="url(#unit_svg__a)" fill="none"><circle cx="9.984" cy="10.935" r="9.476" fill="url(&quot;#unit_svg__b&quot;)" stroke="#3183FF" stroke-width="0.952px" transform="rotate(31 9.984 10.935)"></circle><g filter="url(#unit_svg__c)" fill="none"><path fill="#FFFFFF" d="m15.014 6.5.01 4.98q0 1.199-.332 2.132a4.2 4.2 0 0 1-.937 1.572q-.624.649-1.522.982-.888.334-2.03.334-1.072 0-1.941-.334a4.1 4.1 0 0 1-1.474-.973 4.4 4.4 0 0 1-.956-1.571Q5.5 12.678 5.5 11.48l.01-4.98 2.742.952.01 3.525q.01.717.136 1.257.137.54.4.894.244.324.595.492.353.156.81.157.498 0 .879-.167.39-.177.644-.52.273-.355.41-.885t.146-1.228l.01-3.525z"></path></g></g><defs><filter id="unit_svg__a" width="20" height="25.019" x="0" y="0.981" color-interpolation-filters="sRGB" filterUnits="userSpaceOnUse"><feFlood flood-opacity="0" result="BackgroundImageFix"></feFlood><feBlend in="SourceGraphic" in2="BackgroundImageFix" result="shape"></feBlend><feColorMatrix in="SourceAlpha" result="hardAlpha" values="0 0 0 0 0 0 0 0 0 0 0 0 0 0 0 0 0 0 127 0"></feColorMatrix><feOffset></feOffset><feGaussianBlur stdDeviation="7.037"></feGaussianBlur><feComposite in2="hardAlpha" k2="-1" k3="1" operator="arithmetic"></feComposite><feColorMatrix values="0 0 0 0 1 0 0 0 0 0.977083 0 0 0 0 0.895833 0 0 0 0.25 0"></feColorMatrix><feBlend in2="shape" result="effect1_innerShadow_9533_136432"></feBlend></filter><filter id="unit_svg__c" width="13.524" height="14" x="3.5" y="4.5" color-interpolation-filters="sRGB" filterUnits="userSpaceOnUse"><feFlood flood-opacity="0" result="BackgroundImageFix"></feFlood><feColorMatrix in="SourceAlpha" result="hardAlpha" values="0 0 0 0 0 0 0 0 0 0 0 0 0 0 0 0 0 0 127 0"></feColorMatrix><feOffset></feOffset><feGaussianBlur stdDeviation="1"></feGaussianBlur><feComposite in2="hardAlpha" operator="out"></feComposite><feColorMatrix values="0 0 0 0 0.0252731 0 0 0 0 0.26753 0 0 0 0 0.630916 0 0 0 1 0"></feColorMatrix><feBlend in2="BackgroundImageFix" result="effect1_dropShadow_9533_136432"></feBlend><feBlend in="SourceGraphic" in2="effect1_dropShadow_9533_136432" result="shape"></feBlend></filter><linearGradient id="unit_svg__b" x1="27.162" x2="26.104" y1="5.035" y2="25.168" gradientUnits="userSpaceOnUse"><stop stop-color="#31B7FF"></stop><stop offset="0.248" stop-color="#3183FF"></stop><stop offset="0.529" stop-color="#3183FF" stop-opacity="0.86"></stop><stop offset="1" stop-color="#31B7FF"></stop></linearGradient><linearGradient id="unit_svg__b" x1="27.162" x2="26.104" y1="5.035" y2="25.168" gradientUnits="userSpaceOnUse"><stop stop-color="#31B7FF"></stop><stop offset="0.248" stop-color="#3183FF"></stop><stop offset="0.529" stop-color="#3183FF" stop-opacity="0.86"></stop><stop offset="1" stop-color="#31B7FF"></stop></linearGradient></defs></svg>