<svg xmlns:xlink="http://www.w3.org/1999/xlink" xmlns="http://www.w3.org/2000/svg"   fill="none" viewBox="0 0 22 22" class="sidebar-item__icon" stroke-width="1.5" width="24"  height="24" ><path fill="#18181B" d="M10.358 20.625a.64.64 0 0 1-.641-.642v-3.85a.64.64 0 0 1 .641-.641 3.84 3.84 0 0 0 2.724-1.129.64.64 0 0 1 .906 0l2.72 2.721a.64.64 0 0 1 0 .907 8.9 8.9 0 0 1-6.35 2.634m.642-3.89v2.58a7.6 7.6 0 0 0 4.331-1.795l-1.825-1.823A5.1 5.1 0 0 1 11 16.735" stroke-width="1.5px"></path><path fill="#18181B" d="M16.255 18.18a.64.64 0 0 1-.453-.188l-2.721-2.72a.64.64 0 0 1 0-.907 3.84 3.84 0 0 0 1.127-2.723.64.64 0 0 1 .642-.642h3.85a.64.64 0 0 1 .642.642 8.9 8.9 0 0 1-2.633 6.352.64.64 0 0 1-.454.186m-1.841-3.39 1.823 1.825a7.6 7.6 0 0 0 1.795-4.332h-2.58a5.1 5.1 0 0 1-1.038 2.507M19.983 10.358h-3.529a.64.64 0 0 1-.642-.641 3.533 3.533 0 0 0-3.529-3.53.64.64 0 0 1-.641-.641v-3.53a.64.64 0 0 1 .641-.641 8.35 8.35 0 0 1 8.342 8.342.64.64 0 0 1-.642.641m-2.93-1.283h2.26a7.07 7.07 0 0 0-6.388-6.388v2.26a4.82 4.82 0 0 1 4.128 4.128M10.358 20.625a8.983 8.983 0 0 1 0-17.967A.64.64 0 0 1 11 3.3v3.85a.64.64 0 0 1-.642.642 3.85 3.85 0 0 0 0 7.7.64.64 0 0 1 .642.641v3.85a.64.64 0 0 1-.642.642M9.717 3.968a7.7 7.7 0 0 0 0 15.347v-2.58a5.133 5.133 0 0 1 0-10.187z" stroke-width="1.5px"></path></svg>