<svg xmlns:xlink="http://www.w3.org/1999/xlink" xmlns="http://www.w3.org/2000/svg"   fill="none" viewBox="0 0 25 25" class="sidebar-item__icon" stroke-width="1.5" width="24"  height="24" ><g clip-path="url(#webhook_svg__a)" fill="none" stroke-width="1.5px"><path fill="#18181B" d="M10.896 19.792A4.78 4.78 0 0 1 4.26 20.99a4.823 4.823 0 0 1 2.594-8.73v1.49a3.3 3.3 0 0 0-2.458 1.417 3.26 3.26 0 0 0 .812 4.53 3.24 3.24 0 0 0 4.49-.874c.31-.447.51-.961.583-1.5V16.28h5.813l.073-.114a1.958 1.958 0 1 1 .698 2.698A1.84 1.84 0 0 1 16 17.823h-4.24a5.2 5.2 0 0 1-.864 1.969m7.583-7.438a4.74 4.74 0 1 1-1.166 9.375 4.82 4.82 0 0 1-3.573-2.302l1.291-.677a3.35 3.35 0 0 0 2.417 1.51 3.18 3.18 0 1 0 .781-6.312 3.5 3.5 0 0 0-1.594.187l-.885.459-2.687-5.01h-.23a1.96 1.96 0 0 1 .136-3.917 2.01 2.01 0 0 1 1.927 2.03c-.02.443-.189.865-.48 1.199l1.98 3.656a4.95 4.95 0 0 1 2.083-.198M8.594 9.521a4.733 4.733 0 1 1 8.719-3.688 4.8 4.8 0 0 1-.209 4.24l-1.291-.698a3.3 3.3 0 0 0 .093-2.844 3.176 3.176 0 0 0-5.993-.107 3.18 3.18 0 0 0 .14 2.534c.286.663.78 1.214 1.405 1.573l.407.219-3.198 5.208q.061.094.104.198a1.958 1.958 0 1 1-2.667-.864 1.84 1.84 0 0 1 1.281-.177l2.407-3.927A4.6 4.6 0 0 1 8.594 9.52" stroke-width="1.5px"></path></g><defs><clipPath id="webhook_svg__a"><path fill="#fff" d="M0 0h25v25H0z"></path></clipPath></defs></svg>